<svg xmlns="http://www.w3.org/2000/svg" xmlns:xlink="http://www.w3.org/1999/xlink" viewBox="0 0 585.58 413.79"><defs><style>.cls-1{fill:none;}.cls-2{clip-path:url(#clip-path);}.cls-3{fill:#fff;}.cls-4{fill:#c5c5c5;}.cls-5{fill:#fff1dc;}.cls-6{fill:#d9e7e7;}</style><clipPath id="clip-path" transform="translate(2.62 23.62)"><polygon class="cls-1" points="582.74 380.13 0 380.13 0 380.13 0 0 582.74 0 582.74 0 582.74 380.13"/></clipPath></defs><g id="Layer_2" data-name="Layer 2"><g id="OBJECTS"><g class="cls-2"><polygon class="cls-3" points="585.35 403.75 2.62 403.75 2.62 403.75 2.62 23.62 585.35 23.62 585.35 23.62 585.35 403.75"/><rect class="cls-1" x="2.24" y="24.18" width="582.74" height="380.13" rx="18.64"/><path class="cls-4" d="M428.88,98.06s.22,1.81-1.8,5c-1.23,2-4.47,2.61-4.47,2.61s3.32.31,4.77,2.69a10.81,10.81,0,0,1,1.5,4.92s0-6.42,6.29-8C435.17,105.23,429.59,105.67,428.88,98.06Z" transform="translate(2.62 23.62)"/><ellipse class="cls-4" cx="391.64" cy="214.1" rx="7.53" ry="8.38"/><rect class="cls-1" x="2.24" y="23.62" width="582.74" height="380.13" rx="18.64"/><rect class="cls-1" x="2.24" y="23.62" width="582.74" height="380.13" rx="18.64"/><rect class="cls-1" x="2.24" y="23.62" width="582.74" height="380.13" rx="18.64"/><rect class="cls-1" x="2.24" y="23.62" width="582.74" height="380.13" rx="18.64"/><path class="cls-5" d="M573.65-23.62H554.11c12.84,30.8-1.74,69.07-99.95,90.7C297.87,101.51,396.33,260.35,282.67,292.5c-96.62,27.33-88.11-25.17-165.44-61.46C79.78,213.45,20.35,217.55-2.62,245.5V379.79c0,5.73,4.18,10.38,9.32,10.38H573.65c5.14,0,9.31-4.65,9.31-10.38v-393C583-19,578.79-23.62,573.65-23.62Z" transform="translate(2.62 23.62)"/><path class="cls-6" d="M157.8.19c1.69,20.51-6.48,40.87-18.5,55.77S111.72,81,96,89.84C88.61,94,81,98,75,104.56c-7.83,8.57-12.18,20.73-19.44,30C41.67,152.2,20.46,162.62-.38,159.77V.19Z" transform="translate(2.62 23.62)"/></g></g></g></svg>