<svg xmlns="http://www.w3.org/2000/svg" xmlns:xlink="http://www.w3.org/1999/xlink" viewBox="0 0 585.58 371.68"><defs><style>.cls-1{fill:none;}.cls-2{clip-path:url(#clip-path);}.cls-3{fill:#fff;}.cls-4{fill:#c5c5c5;}.cls-5{fill:#fff1dc;}.cls-6{fill:#d9e7e7;}</style><clipPath id="clip-path" transform="translate(2.62 21.22)"><rect class="cls-1" width="582.74" height="341.45" rx="18.64"/></clipPath></defs><g id="Layer_2" data-name="Layer 2"><g id="OBJECTS"><g class="cls-2"><rect class="cls-3" x="2.62" y="21.22" width="582.74" height="341.45" rx="18.64"/><rect class="cls-1" x="2.24" y="21.72" width="582.74" height="341.45" rx="18.64"/><path class="cls-4" d="M428.88,88.08s.22,1.63-1.8,4.49c-1.23,1.76-4.47,2.35-4.47,2.35s3.32.27,4.77,2.42a8.93,8.93,0,0,1,1.5,4.41,7.71,7.71,0,0,1,6.29-7.23S429.59,94.92,428.88,88.08Z" transform="translate(2.62 21.22)"/><circle class="cls-4" cx="389.02" cy="171.09" r="7.53" transform="translate(-4.42 346.41) rotate(-45)"/><rect class="cls-1" x="2.24" y="21.22" width="582.74" height="341.45" rx="18.64"/><rect class="cls-1" x="2.24" y="21.22" width="582.74" height="341.45" rx="18.64"/><rect class="cls-1" x="2.24" y="21.22" width="582.74" height="341.45" rx="18.64"/><rect class="cls-1" x="2.24" y="21.22" width="582.74" height="341.45" rx="18.64"/><path class="cls-5" d="M573.65-21.22H554.11c12.84,27.67-1.74,62-99.95,81.48-156.29,30.92-57.83,173.6-171.49,202.48-96.62,24.55-88.11-22.61-165.44-55.21-37.45-15.8-96.88-12.12-119.85,13V341.15a9.32,9.32,0,0,0,9.32,9.31H573.65a9.31,9.31,0,0,0,9.31-9.31v-353A9.31,9.31,0,0,0,573.65-21.22Z" transform="translate(2.62 21.22)"/><path class="cls-6" d="M157.8.17c1.69,18.42-6.48,36.71-18.5,50.09S111.72,72.78,96,80.7C88.61,84.42,81,88,75,93.92c-7.83,7.7-12.18,18.63-19.44,26.93C41.67,136.71,20.46,146.07-.38,143.51V.17Z" transform="translate(2.62 21.22)"/></g></g></g></svg>