<svg xmlns="http://www.w3.org/2000/svg" viewBox="0 0 347.31 246.06"><defs><style>.cls-1{fill:#d9e7e7;}.cls-2{fill:#81b0b0;}.cls-3{fill:#498c8c;}.cls-4{fill:#3a5a60;}.cls-5{fill:#83b1b1;}.cls-6{fill:#51816c;}.cls-7{fill:#ebab9e;}.cls-8{fill:#dd948f;}.cls-9{fill:#324864;}.cls-10{fill:#b26738;}.cls-11{fill:#5d8584;}.cls-12{fill:#d68a53;}.cls-13{fill:#211e26;}.cls-14{fill:#e16d5a;}.cls-15{fill:#95554e;}.cls-16{fill:#ebaba1;}.cls-17,.cls-45,.cls-52{fill:none;stroke-linecap:round;stroke-linejoin:round;stroke-width:1.11px;}.cls-17{stroke:#aa585f;}.cls-18{fill:#dfc9ce;}.cls-19{fill:#d0b3be;}.cls-20{fill:#e8c9ae;}.cls-21{fill:#f6dfbf;}.cls-22{fill:#faedd7;}.cls-23{fill:#6e97bd;}.cls-24{fill:#6489b4;}.cls-25{fill:#8c4646;}.cls-26{fill:#29242e;}.cls-27{fill:#352e3a;}.cls-28{fill:#765d6b;}.cls-29{fill:#674c64;}.cls-30{fill:#ff7272;}.cls-31{fill:#d85c55;}.cls-32{fill:#e16b59;}.cls-33{fill:#e48576;}.cls-34{fill:#eaa55b;}.cls-35{fill:#e39a54;}.cls-36{fill:#7aa8cf;}.cls-37{fill:#6f97bd;}.cls-38{fill:#352b38;}.cls-39{fill:#945351;}.cls-40{fill:#a36c64;}.cls-41{fill:#fff;}.cls-42{fill:#6f9c99;}.cls-43{fill:#577e7e;}.cls-44{fill:#ebd4be;}.cls-45{stroke:#ebd4be;}.cls-46{fill:#3d3341;}.cls-47{fill:#7c3939;}.cls-48{fill:#806a76;}.cls-49{fill:#eadadb;}.cls-50{fill:#be5b36;}.cls-51{fill:#f6dd90;}.cls-52{stroke:#f6dd90;}.cls-53{fill:#86bbd4;}.cls-54{fill:#434d65;}.cls-55{fill:#2a3645;}.cls-56{fill:#516b87;}.cls-57{fill:#f77b59;}.cls-58{fill:#db5223;}</style></defs><g id="Layer_2" data-name="Layer 2"><g id="OBJECTS"><path class="cls-1" d="M326.44,24.38a14.71,14.71,0,0,0-5.78-14.72c-4.57-3.22-12.29-5-17-2A21.34,21.34,0,0,0,281.06,1a21.34,21.34,0,0,0-14.38,18.62,12.85,12.85,0,0,0-12.11-1.47,12.26,12.26,0,0,0-7.21,9.46c-6-.82-13.93.88-19.46,3.27A10,10,0,0,0,224,33.48a4.22,4.22,0,0,0-.69,4.46c.84,1.59,2.82,2.17,4.6,2.46a37.12,37.12,0,0,0,16.3-1c6.21,6.07,17.21,8,24.5,3.29,3.87,3.84,9.64,4.74,15.09,4.76a21.27,21.27,0,0,0,14.79-6c4.31,2.83,9.66,3.35,14.72,2.32a20,20,0,0,0,12.53-8.4c4,1.78,8.34,3.7,12.67,3.26A12.83,12.83,0,0,0,344.07,37a6.63,6.63,0,0,0,3.21-4.71c.28-2.57-1.44-5.06-3.68-6.35a15.46,15.46,0,0,0-7.51-1.63C333.5,24.22,329,24.79,326.44,24.38Z"/><path class="cls-1" d="M28.25,18.24A15,15,0,0,1,42.64,10,15,15,0,0,1,55.47,20.51c4.71-3.76,11.5-3.15,15,1.78A9.8,9.8,0,0,1,81.3,18.73a10.38,10.38,0,0,1,7.2,9.32c3.52-1.3,7-.76,10.66-.09,2.12.38,4.53,1.47,4.85,3.59a3.92,3.92,0,0,1-1.67,3.56,9.49,9.49,0,0,1-3.8,1.51,33.75,33.75,0,0,1-17.93-1.11C72.06,40.82,60.36,43.3,51.26,39c-9.31,5.46-21.35,6.1-30.57.47A19.15,19.15,0,0,1,6.18,38.25C1.84,36-1.08,30.66.38,26,1.64,21.9,5.77,19.25,10,18.49S24.06,17.45,28.25,18.24Z"/><path class="cls-1" d="M280.48,142.25a4.1,4.1,0,0,0,2.95,1.45,4.38,4.38,0,0,0,3.05-1.4,16,16,0,0,0,11.89,0,8.45,8.45,0,0,0,3.86.68c1.31-.18,2.55-1.24,2.23-2.32a2.43,2.43,0,0,0-2-1.4,10.13,10.13,0,0,0-3,.24c-.67-1.74-4-2.74-5.74-1.62.11-2-1.92-3.91-4.3-4s-5.72,1.39-5.94,3.38c-2.1-1.19-5.33-.55-6.57,1.3a7.87,7.87,0,0,0-4,.23c-.91.32-1.81,1-1.74,1.81a1.57,1.57,0,0,0,.81,1.14,4.3,4.3,0,0,0,1.48.54A23,23,0,0,0,280.48,142.25Z"/><path class="cls-1" d="M27.17,145.41a4.15,4.15,0,0,0,2.95,1.46,4.42,4.42,0,0,0,3.05-1.41,15.93,15.93,0,0,0,11.89,0,8.45,8.45,0,0,0,3.86.68c1.32-.18,2.55-1.23,2.23-2.32a2.4,2.4,0,0,0-2-1.39,9.8,9.8,0,0,0-3,.23c-.67-1.74-4-2.73-5.74-1.62.11-2-1.92-3.9-4.3-4s-5.72,1.39-5.94,3.38c-2.1-1.18-5.33-.55-6.57,1.3a8,8,0,0,0-4,.23c-.91.32-1.81,1-1.74,1.81a1.57,1.57,0,0,0,.81,1.14,4.3,4.3,0,0,0,1.48.54A23,23,0,0,0,27.17,145.41Z"/><path class="cls-1" d="M239.53,88.64A5.79,5.79,0,0,1,247,84.52a3.5,3.5,0,0,1,2-4.18,6,6,0,0,1,5.29.21,11.71,11.71,0,0,1,4,3.66,3.86,3.86,0,0,1,3.39-.44A2.39,2.39,0,0,1,263.06,86a8.87,8.87,0,0,1,5.6,0c.83.28,1.73.81,1.81,1.68a1.71,1.71,0,0,1-.68,1.42,3.83,3.83,0,0,1-1.49.65,22.46,22.46,0,0,1-8.57,0,6.3,6.3,0,0,1-7.78.33,10.39,10.39,0,0,1-10,1.27,15,15,0,0,1-7.38,1.27,3.42,3.42,0,0,1-1.57-.47,1.36,1.36,0,0,1-.62-1.41c.17-.64.88-1,1.52-1.12C235.22,89.37,238.14,88.44,239.53,88.64Z"/><path class="cls-2" d="M325.83,205.94c-22.13-2.65-47.7-6.69-69.85-4.23a10.34,10.34,0,0,1-2.29-6.67,7.22,7.22,0,0,1,.86-3,5.79,5.79,0,0,1,2.94-2.67,4.79,4.79,0,0,1,5.87,2.1,22,22,0,0,1-1.52-12.69,14.31,14.31,0,0,1,7.62-10.34c2.8-1.28,6.69-1.13,8.3,1.49a7.14,7.14,0,0,1,4.54-5,6.64,6.64,0,0,1,6.31,1.58c-1-2.56.4-5.36,2.54-7.09a11.83,11.83,0,0,1,7.75-2.25,13.29,13.29,0,0,1,7.59,2.28c.22.16.42.32.62.49a14,14,0,0,1,4.32,7.81,40.57,40.57,0,0,1,.46,9.85c2.22-1.91,4.9-1.84,7.54-.59,3.38,1.61,4.81,5.85,4.3,9.55s-2.54,7-4.52,10.16c2.54-.62,5.93-.33,7.28,1.9A6.35,6.35,0,0,1,325.83,205.94Z"/><path class="cls-3" d="M307.11,160a12.61,12.61,0,0,0-9.05,1.36,9.87,9.87,0,0,0-4.83,8.46,13.06,13.06,0,0,0-8.53-.91,11.7,11.7,0,0,0-6.65,4.68c-1.18-1.67-3.52-1.93-5.48-1.33a9.47,9.47,0,0,0-4.76,3.72,18,18,0,0,0-2,17.34c-2.61-2.22-6.59-2.62-9.89-1.69a9.43,9.43,0,0,0-1.35.48,5.79,5.79,0,0,1,2.94-2.67,4.79,4.79,0,0,1,5.87,2.1,22,22,0,0,1-1.52-12.69,14.31,14.31,0,0,1,7.62-10.34c2.8-1.28,6.69-1.13,8.3,1.49a7.14,7.14,0,0,1,4.54-5,6.64,6.64,0,0,1,6.31,1.58c-1-2.56.4-5.36,2.54-7.09a11.83,11.83,0,0,1,7.75-2.25,13.29,13.29,0,0,1,7.59,2.28C306.71,159.63,306.91,159.79,307.11,160Z"/><path class="cls-4" d="M285.08,203.91c-1.67-2.29-3.31-4.58-4.88-6.9a92.15,92.15,0,0,0-.43-14.48c0-.19-.32-.2-.3,0a117.31,117.31,0,0,1,.17,13.65,111,111,0,0,1-7-11.84c-.1-.21-.41,0-.31.18a83.38,83.38,0,0,0,12.48,19.6C284.93,204.27,285.19,204.07,285.08,203.91Z"/><path class="cls-4" d="M308.34,205.23q-2.16-4.9-4.19-9.86a84.25,84.25,0,0,0,3.08-15.58c0-.19-.32-.23-.34,0a95.46,95.46,0,0,1-3.26,14.37c-2.69-6.57-5.26-13.18-7.86-19.81-.06-.16-.33-.1-.27.08,2.2,7.12,4.86,14.14,7.77,21.05a.26.26,0,0,0,.08.19c.89,2.13,1.81,4.23,2.74,6.33a69,69,0,0,1-18-13.7c-.16-.17-.39.07-.25.24A55.08,55.08,0,0,0,306.57,203c.38.85.76,1.72,1.15,2.57C307.92,206,308.53,205.65,308.34,205.23Z"/><path class="cls-5" d="M83.55,202.44a171.44,171.44,0,0,0-72,10.38l-5.58-3a34,34,0,0,1-4.75-8.41c-1-3.06-1.12-6.59.52-9.37S7,187.59,10,188.81A28.72,28.72,0,0,1,8.14,180a11.58,11.58,0,0,1,.95-5.34,8.34,8.34,0,0,1,1.63-2.44,6.7,6.7,0,0,1,7.71-1.51c.61-5.84,6.82-12.11,12.69-12.29a12.68,12.68,0,0,1,12.44,10.29A5.54,5.54,0,0,1,50,165.83a5.93,5.93,0,0,1,4.22,6c1.93-3.32,6.84-4.44,10.46-3.15a12.3,12.3,0,0,1,7.26,8.41,22.1,22.1,0,0,1-.3,11.41c2-1.49,5-1,7.32.43a10,10,0,0,1,3,2.64C84.14,194.59,84.34,198.73,83.55,202.44Z"/><path class="cls-3" d="M78.93,188.9a20.31,20.31,0,0,0-9.37.79,25.68,25.68,0,0,0-1.43-9.51,11.47,11.47,0,0,0-6.5-6.76,7,7,0,0,0-8.15,2.76,7.73,7.73,0,0,0-5.72-5.1c-2.62-.52-5.26-.23-7,1.82a11.61,11.61,0,0,0-12.28-7.55,11.37,11.37,0,0,0-9.69,10.44,8.65,8.65,0,0,0-8.4-1.68,7,7,0,0,0-1.31.59,8.34,8.34,0,0,1,1.63-2.44,6.7,6.7,0,0,1,7.71-1.51c.61-5.84,6.82-12.11,12.69-12.29a12.68,12.68,0,0,1,12.44,10.29A5.54,5.54,0,0,1,50,165.83a5.93,5.93,0,0,1,4.22,6c1.93-3.32,6.84-4.44,10.46-3.15a12.3,12.3,0,0,1,7.26,8.41,22.1,22.1,0,0,1-.3,11.41C73.66,187,76.56,187.49,78.93,188.9Z"/><path class="cls-4" d="M38.66,195.29a.44.44,0,0,0,.23-.25,117.31,117.31,0,0,0,5.62-16.82.14.14,0,1,0-.26-.08,117.84,117.84,0,0,1-6,16.2c-3-7-5.95-14.06-8.56-21.3,0-.12-.24-.07-.2.06a232.79,232.79,0,0,0,9.4,25.79C31.67,195.57,25,191.54,18,187.73c-.15-.08-.26.13-.13.23,6.46,4.95,14.16,8.76,21.56,12.13.72,1.57,1.45,3.13,2.22,4.66.24.47,1.07.14.86-.36C41.24,201.34,40,198.32,38.66,195.29Z"/><path class="cls-4" d="M66.39,185a91.75,91.75,0,0,1-13,18c-.36.4.22,1,.6.59a82.4,82.4,0,0,0,12.88-18.31C67,184.94,66.55,184.68,66.39,185Z"/><path class="cls-6" d="M45.35,235a5.43,5.43,0,0,1,1.27,5.48A11.33,11.33,0,0,1,45.35,235Z"/><path class="cls-6" d="M49.93,234.4a8.94,8.94,0,0,1-.84,6.23,8.93,8.93,0,0,1,.84-6.23Z"/><path class="cls-6" d="M53.92,236.92a20.29,20.29,0,0,1-2.22,4.74,4,4,0,0,1,2.22-4.74Z"/><path class="cls-6" d="M118.86,238.32a5.47,5.47,0,0,1,2.16,5.2,11.29,11.29,0,0,1-2.16-5.2Z"/><path class="cls-6" d="M123.28,237a8.88,8.88,0,0,1,.2,6.28,8.94,8.94,0,0,1-.2-6.28Z"/><path class="cls-6" d="M127.63,238.82a20.39,20.39,0,0,1-1.4,5,4.05,4.05,0,0,1,1.4-5Z"/><path class="cls-6" d="M195.83,240.38a5.44,5.44,0,0,1,3.5,4.41,11.34,11.34,0,0,1-3.5-4.41Z"/><path class="cls-6" d="M199.72,237.9a8.93,8.93,0,0,1,1.92,6,8.88,8.88,0,0,1-1.92-6Z"/><path class="cls-6" d="M204.4,238.46a20.35,20.35,0,0,1,0,5.23,4,4,0,0,1,0-5.23Z"/><path class="cls-6" d="M281.32,211.86a5.45,5.45,0,0,1,2,5.26,11.38,11.38,0,0,1-2-5.26Z"/><path class="cls-6" d="M285.78,210.67a8.88,8.88,0,0,1,0,6.28,8.93,8.93,0,0,1,0-6.28Z"/><path class="cls-6" d="M290.08,212.62a20.86,20.86,0,0,1-1.55,5,4,4,0,0,1,1.55-5Z"/><path class="cls-6" d="M263.22,240.3a5.46,5.46,0,0,1,2,5.26,11.38,11.38,0,0,1-2-5.26Z"/><path class="cls-6" d="M267.68,239.11a8.91,8.91,0,0,1,0,6.29,9,9,0,0,1,0-6.29Z"/><path class="cls-6" d="M272,241.06a20.86,20.86,0,0,1-1.55,5,4,4,0,0,1,1.55-5Z"/><path class="cls-6" d="M32.84,217.46a5.47,5.47,0,0,1,2.31,5.14,11.28,11.28,0,0,1-2.31-5.14Z"/><path class="cls-6" d="M37.23,216a8.92,8.92,0,0,1,.37,6.27,9,9,0,0,1-.37-6.27Z"/><path class="cls-6" d="M41.62,217.72a20.31,20.31,0,0,1-1.25,5.08,4,4,0,0,1,1.25-5.08Z"/><path class="cls-6" d="M63.85,201.81a5.43,5.43,0,0,1,1.84,5.32,11.5,11.5,0,0,1-1.84-5.32Z"/><path class="cls-6" d="M68.35,200.76a9,9,0,0,1-.18,6.29,8.91,8.91,0,0,1,.18-6.29Z"/><path class="cls-6" d="M72.58,202.85a20.58,20.58,0,0,1-1.71,5,4,4,0,0,1,1.71-5Z"/><path class="cls-6" d="M209,208.07a5.47,5.47,0,0,1,2.89,4.83,11.33,11.33,0,0,1-2.89-4.83Z"/><path class="cls-6" d="M213.19,206.12a9,9,0,0,1,1.11,6.19,8.94,8.94,0,0,1-1.11-6.19Z"/><path class="cls-6" d="M217.76,207.29a20.7,20.7,0,0,1-.65,5.2,4,4,0,0,1,.65-5.2Z"/><path class="cls-6" d="M115.55,206.63a5.45,5.45,0,0,1,2.23,5.17,11.31,11.31,0,0,1-2.23-5.17Z"/><path class="cls-6" d="M120,205.25a8.89,8.89,0,0,1,.29,6.28,9,9,0,0,1-.29-6.28Z"/><path class="cls-6" d="M124.33,207a20.09,20.09,0,0,1-1.33,5.06,4,4,0,0,1,1.33-5.06Z"/><ellipse class="cls-3" cx="164.64" cy="226.07" rx="118.83" ry="8.33"/><path class="cls-7" d="M88.67,126s-2.53,0-4.69.1a9.62,9.62,0,0,0-2.92.41c-.86.56-11.74,18.11-11.74,18.11L64.12,141s7.53-22.7,9-24.07c.64-.62,3.62-1.62,6.69-2.53,3.72-1.1,7.58-2.07,7.58-2.07Z"/><path class="cls-8" d="M88.67,126s-2.53,0-4.69.1l-4.21-11.73c3.72-1.1,7.58-2.07,7.58-2.07Z"/><path class="cls-8" d="M62.51,154.36a6,6,0,0,0,1.43,2.95,1.18,1.18,0,0,0,1.12.49.91.91,0,0,0,.58-.88,2.89,2.89,0,0,0-.29-1.08c-.83-2-1.59-4.1-1.11-6.17-.07.3-1,.86-1.2,1.08a2.11,2.11,0,0,0-.62.71A5.61,5.61,0,0,0,62.51,154.36Z"/><path class="cls-8" d="M65.08,154.74a1.74,1.74,0,0,0,.84.43.72.72,0,0,0,.78-.4c.14-.38-.15-.77-.4-1.09a5.8,5.8,0,0,1-.9-5.19c-.16.49-1.46,1-1.89,1.24a1,1,0,0,0-.58,1.22A6.11,6.11,0,0,0,65.08,154.74Z"/><path class="cls-7" d="M68.18,148.8a7.4,7.4,0,0,0-.11,4.27,2.4,2.4,0,0,0,.51,1.05,1.05,1.05,0,0,0,1.07.33,1.18,1.18,0,0,0,.69-1.08,10.54,10.54,0,0,0-.11-1.37c-.09-1.56.9-3.25,1.09-4.81a4.37,4.37,0,0,0-1.73-4,41.34,41.34,0,0,0-4.87-2.85A20.1,20.1,0,0,0,61.17,146c-1.23,3.16-1.61,6.83-.18,9.91a9.35,9.35,0,0,0,2,2.86,1.23,1.23,0,0,0,1.08.45c.51-.15.63-.82.52-1.34a18.2,18.2,0,0,0-1.08-2.55,5.15,5.15,0,0,1,.31-4.24C64.56,149.76,66.75,149.09,68.18,148.8Z"/><polygon class="cls-9" points="254.04 221.97 249.18 221.97 241.88 112.85 246.75 112.85 254.04 221.97"/><polygon class="cls-9" points="82.26 221.97 87.12 221.97 94.41 112.85 89.55 112.85 82.26 221.97"/><polygon class="cls-9" points="58.01 225.01 53.92 225.01 57.37 179.39 61.46 179.39 58.01 225.01"/><polygon class="cls-9" points="273.46 225.01 269.37 225.01 265.27 179.39 269.37 179.39 273.46 225.01"/><polygon class="cls-10" points="261.3 138.76 74.67 138.76 75.51 119.15 260.46 119.15 261.3 138.76"/><polygon class="cls-10" points="262.32 162.66 73.65 162.66 74.51 142.62 261.46 142.62 262.32 162.66"/><rect class="cls-10" x="52.02" y="175.51" width="223.23" height="6.57"/><path class="cls-8" d="M131.4,104.71c.35.46,13.68-2.43,16.17-2.43,4.61,0,23,6.13,23,6.13l-2.34,6.9s-22.37-3.42-24.81-2.92-12,2.92-12,2.92Z"/><polygon class="cls-11" points="125.45 111.44 124.8 104.65 139.77 102.28 140.72 119.37 127.82 123.09 125.45 111.44"/><path class="cls-12" d="M162.3,112l1.3-5.08s21-1.19,26-.67,15.64,5.17,15.64,5.17L203,115.8s-27.74.44-37.14,8.13Z"/><path class="cls-13" d="M178.87,95.84a2.5,2.5,0,0,0-1.25,2.5,2.53,2.53,0,0,0-2.56.54,2.46,2.46,0,0,0-.38,2.56,2.55,2.55,0,0,0-2.27,1.43,2.84,2.84,0,0,0,.39,2.83,2.68,2.68,0,0,0,.06,4.9,2.68,2.68,0,0,0,1.32,4.8,2.75,2.75,0,0,0,1,2.45,8.13,8.13,0,0,0,2.4,1.32c2.22.91,4.86,1.79,6.87.49a3.52,3.52,0,0,0,5.27-.5,2.82,2.82,0,0,0,5.07-.7,1.7,1.7,0,0,0,2.76-1.66,2.78,2.78,0,0,0,2.66-4.09c1.25.12,2.13-1.43,1.83-2.65a5.46,5.46,0,0,0-2.34-2.85,3.08,3.08,0,0,0-2.18-5,2.41,2.41,0,0,0-3-3.79,2,2,0,0,0-.71-2.45,2,2,0,0,0-2.52.4,2.39,2.39,0,0,0-4.56-.93,3.25,3.25,0,0,0-3.32-1.56,3,3,0,0,0-2.23,2.06A3.5,3.5,0,0,0,178.87,95.84Z"/><path class="cls-14" d="M196.28,113.59l-.6-5.18s5.86.22,7.46,3.13S208,122.21,208,122.21l-11.29,6.52Z"/><path class="cls-15" d="M199.58,126s5.77,18.22,7.75,18.74,23.36,1.55,23.36,1.55l.74-6L213,137.44l-5-15.23Z"/><path class="cls-16" d="M229.32,119.25l2.45-11.19s3.67-.29,7.45,5.72c3,4.75,9.67,24,12.4,27,3.2,3.57,9.75,25.67,9.75,25.67L254.88,170l-24-48.82"/><path class="cls-16" d="M255.69,168.28l-.81,1.76s-.89,3.2.66,4.88,3.19,4.73,3.7,3.72-.9-4.52-.9-4.52,4.18,2.2,4.91,2.82c1,.81,2.61,4,3.6,3.16.52-.43-.84-3.45-1.18-4.06a16.57,16.57,0,0,0-1.69-2.13s1.87,1.11,2.47,1.54,2,2.65,2.88,2.43.6-1.7.6-1.7,1.07.2,1.53-.48c.36-.52-.09-1.68-.09-1.68a1,1,0,0,0,.92-1.13c-.16-1.17-4.38-4.23-5.64-4.76s-5.28-1.64-5.28-1.64Z"/><path class="cls-17" d="M269.63,175.8a9,9,0,0,0-4.06-3.61"/><path class="cls-17" d="M271.12,173.83a10.26,10.26,0,0,0-4.14-3.25"/><path class="cls-16" d="M213.8,114.33l-6.18-5.06a6.42,6.42,0,0,0-5,5.06c-1.2,4.59-2.26,20.93-2.61,21.46-.75,1.12-19.64,9.06-19.64,9.06l1.24,4.45s22.4-4.22,24.68-6S213.8,114.33,213.8,114.33Z"/><path class="cls-18" d="M240.6,166.84c-.09,7.44-3.89,10.61-17,10.77s-20.15-4.85-18.89-12.35a56.88,56.88,0,0,1,2.09-8.32,53.72,53.72,0,0,1,2.07-5.33l27.07-1.85a93.92,93.92,0,0,1,3.31,9.37A29.77,29.77,0,0,1,240.6,166.84Z"/><path class="cls-19" d="M239.22,159.13c-16.61,5.16-28.22.19-32.45-2.19a53.72,53.72,0,0,1,2.07-5.33l27.07-1.85A93.92,93.92,0,0,1,239.22,159.13Z"/><path class="cls-20" d="M209.34,105s.42-1.75,4-.89c4.06,1,3.18,1.94,7.72,1.81,3.06-.09,7.54-5.06,14.09-3.65l.15-11.35-26.51.73Z"/><path class="cls-16" d="M225.57,106.78c-.81,4.23-2.32,9.85-5.29,10.28-2.6.37-6.05-4.66-7-8.85.07-.06,1.69-.54,1.69-4.77a25,25,0,0,1,.24-3.32H224a33.63,33.63,0,0,0,.05,5.14A1.67,1.67,0,0,0,225.57,106.78Z"/><path class="cls-8" d="M224,105.26a12,12,0,0,1-9-1.82c.17-1.73.24-3.32.24-3.32H224A40.29,40.29,0,0,0,224,105.26Z"/><path class="cls-21" d="M207.75,89c-.16.23.34,3.73-.67,7.14s-3.3,7.31-.47,10.67a14.45,14.45,0,0,1,.76-7.86s-1.11,5.59,1.46,7.38,4.09,1.26,4.09,1.26-2.64-1.94-2.81-6.55a78.64,78.64,0,0,1,.9-11.62Z"/><path class="cls-8" d="M212.9,92c-.65,1.53-2.76,2.1-4.72,1.27s-3-2.74-2.38-4.27,2.76-2.1,4.72-1.27S213.55,90.42,212.9,92Z"/><path class="cls-16" d="M231.23,91.22c-1.3,8.07-6.16,13-12.37,12.37s-10.24-7.74-8.94-15.81,7.13-13.85,13-12.9S232.53,83.15,231.23,91.22Z"/><path class="cls-8" d="M229.78,95.09a28.26,28.26,0,0,1-.33-6.42s-3.32-2.84-3.54-6.35c0,0-4.4,3.35-7.87,3.16a15.08,15.08,0,0,0,2.55-2.11,22.85,22.85,0,0,1-8.45,2.23s-2.17,2.2-2.45,4.24c0,0,0,.09,0,.14-.2,2.07.69-7.92.69-7.92l14.27-5.32s8.35,8.91,8.4,9S229.78,95.09,229.78,95.09Z"/><path class="cls-21" d="M236.23,102a3.29,3.29,0,0,1-.87.7,21.41,21.41,0,0,0-4.07,2.59,5.85,5.85,0,0,0-.36-4.6c.42,5.21-2.93,5.46-2.39,5.13s1.93-2.29.49-7S230.4,89,230.4,89a15.74,15.74,0,0,1-4.2-9.15s-.84,5.14-10.42,6.29c0,0,7.17-2.24,8.51-5.48-.09.1-3.25,3.36-12.69,4.56-1.19,1.46-1.49,3-1.86,6.38a8.79,8.79,0,0,1-1.59-4c-.08-.86-.06-6.93,2.65-11a8.79,8.79,0,0,1,2.21-2.3,6.73,6.73,0,0,1,.73-.44c5.62-3,12.13-3,14,1.33,4.6-1.13,6.49,4.41,7.35,9,.09.46.17.92.23,1.36.16,1,.27,1.87.35,2.57.34,2.72.52,5.47.74,8.21C236.5,97.54,237.37,100.65,236.23,102Z"/><path class="cls-22" d="M235.08,84.17c-3.38-9.06-8-7.78-8-7.78-4-5.54-12.42-1.88-16.29.24a8.79,8.79,0,0,1,2.21-2.3,6.73,6.73,0,0,1,.73-.44c5.62-3,12.13-3,14,1.33C232.33,74.09,234.22,79.63,235.08,84.17Z"/><path class="cls-9" d="M214.37,112.2c3.39,1.52,6.74,1.63,10-.66L220,123.93Z"/><path class="cls-23" d="M237.91,153.06c-1.34,1.23-14.79,4.57-14.79,4.57l-1.06-4.12-1.1,4.12s-13.43-2.23-14-2.87,2.39-10.71,2.49-11.74a9.62,9.62,0,0,0-.09-1.57c-.36-3.54-1.61-11.58-1.77-14.94-.11-2.06-.43-16.49-.17-17.2.17-.47,6.25-1.53,6.25-1.53s5.58,14.41,6.42,14.19,5.18-15.43,5.18-15.43,7.13,1,7.54,1.51,2.11,14.11,2.26,15.73c.12,1.16,0,4.54-.2,8-.2,4.06-.42,8.25-.28,9.21C234.85,143,238.4,152.61,237.91,153.06Z"/><path class="cls-24" d="M237.91,153.06c-1.34,1.23-14.79,4.57-14.79,4.57l-1.06-4.12-1.1,4.12s-13.43-2.23-14-2.87,2.39-10.71,2.49-11.74a9.62,9.62,0,0,0-.09-1.57c12.66.05,20.86-5.16,25.51-9.65-.2,4.06-.42,8.25-.28,9.21C234.85,143,238.4,152.61,237.91,153.06Z"/><path class="cls-15" d="M232.12,138.09a1.64,1.64,0,0,1-.7-.06.85.85,0,0,1-.53-.5.91.91,0,0,1,.25-.93,2.26,2.26,0,0,1,.85-.42l2.77-.89c.47-.15,1-.26,1.39.13a1.09,1.09,0,0,1-.1,1.39,4.55,4.55,0,0,1-1.75.82A7.07,7.07,0,0,1,232.12,138.09Z"/><path class="cls-15" d="M231.67,140.12a1.85,1.85,0,0,1-.7-.06.86.86,0,0,1-.53-.51.88.88,0,0,1,.26-.92,2.15,2.15,0,0,1,.84-.42l2.78-.89c.46-.15,1-.27,1.38.13a1.1,1.1,0,0,1-.09,1.39,4.69,4.69,0,0,1-1.75.82A7.51,7.51,0,0,1,231.67,140.12Z"/><path class="cls-15" d="M231.75,141.92a1.86,1.86,0,0,1-.7-.07.85.85,0,0,1-.53-.5.9.9,0,0,1,.26-.92,2,2,0,0,1,.84-.42l2.78-.89a1.29,1.29,0,0,1,1.39.12,1.12,1.12,0,0,1-.1,1.4,4.52,4.52,0,0,1-1.75.81A7.46,7.46,0,0,1,231.75,141.92Z"/><path class="cls-15" d="M231.8,144a1.67,1.67,0,0,1-.7-.06.9.9,0,0,1-.53-.5.92.92,0,0,1,.26-.93,2.22,2.22,0,0,1,.84-.42l2.78-.89c.46-.15,1-.26,1.39.13a1.09,1.09,0,0,1-.1,1.39,4.62,4.62,0,0,1-1.75.82A7.14,7.14,0,0,1,231.8,144Z"/><path class="cls-15" d="M176.39,118.84s-1.17,5.12-2.55,10.55c-1.44,5.63-3.1,11.6-3.92,12.54-2.65,3-9.22,8.73-9.22,8.73l-3.17-9.37s5.69-5,7-8.42a95.29,95.29,0,0,0,2.1-9.78c.82-4.5,1.53-8.79,1.53-8.79Z"/><path class="cls-25" d="M176.39,118.84s-1.17,5.12-2.55,10.55l-7.23-6.3c.82-4.5,1.53-8.79,1.53-8.79Z"/><path class="cls-14" d="M176.91,111.41l-.48-4.72s-4.38-1-6.14,2.08S165.23,120,165.23,120l9.53,6Z"/><path class="cls-15" d="M186.58,116.51c-9,.23-9.53-6.53-9.36-9.7,1.59.2,3.61.63,4.05.39.19-.12.23-.7.19-1.46a42.94,42.94,0,0,0-.69-4.76l9.22,1.3a30.53,30.53,0,0,0,.91,4.69,1.61,1.61,0,0,0,.22.44c.5.59,2.21.72,3.56.87C194.74,111.83,193.45,116.34,186.58,116.51Z"/><path class="cls-25" d="M190.9,107a21.25,21.25,0,0,1-9.44-1.23,42.94,42.94,0,0,0-.69-4.76l9.22,1.3A30.53,30.53,0,0,0,190.9,107Z"/><path class="cls-25" d="M177.49,95.31c-.26,1.64-2.17,2.71-4.27,2.39s-3.6-1.92-3.35-3.57,2.17-2.71,4.27-2.38S177.74,93.67,177.49,95.31Z"/><path class="cls-25" d="M192.13,94.56c.53,1.58,2.6,2.3,4.61,1.62s3.22-2.51,2.69-4.08-2.6-2.3-4.62-1.62S191.6,93,192.13,94.56Z"/><path class="cls-15" d="M195.09,90.13c.7,8.15-2.8,14.14-9,15s-11.83-5-12.53-13.16,3.54-15.16,9.48-15.68S194.38,82,195.09,90.13Z"/><path class="cls-25" d="M173.74,93.36l1.87-5.16s6.16-2.16,7.79-5.92a13.39,13.39,0,0,0,9.3,4.61l2,4.9-.51-7.52-10.79-6.7-10.22,8.18Z"/><path class="cls-26" d="M195.81,88.86a11.34,11.34,0,0,1-.24,2.39l-.45,2.11-1.72-7.07c-8.72-2.24-10.29-6.65-10.29-6.65-1.23,5.18-8.34,7.88-8.34,7.88l-.77,7.2-1.3-2.66a5.79,5.79,0,0,1-.21-.71,27.6,27.6,0,0,1-.63-7,8.93,8.93,0,0,1,2.38-5.8,12.8,12.8,0,0,1,8.14-3.9c6.4-.72,8.91,1,11.39,5.14a15.31,15.31,0,0,1,1.74,5.26A27,27,0,0,1,195.81,88.86Z"/><path class="cls-27" d="M195.51,85.05c-4.82-12-16.28-8.8-21.27-6.5a12.8,12.8,0,0,1,8.14-3.9c6.4-.72,8.91,1,11.39,5.14A15.31,15.31,0,0,1,195.51,85.05Z"/><path class="cls-28" d="M207.11,164.49c-.05,6.71-5.08,10.55-15.72,11.35-15.62,1.19-18.73-1-19.29-7.33-.53-6.06,1.18-14.85,2.24-19.55.46-2,.79-3.25.79-3.25l25.69-2.37.22.48C202.17,146.26,207.16,157.54,207.11,164.49Z"/><path class="cls-29" d="M201,143.82c-2.68,1.57-12.21,6.36-26.7,5.14.46-2,.79-3.25.79-3.25l25.69-2.37Z"/><path class="cls-30" d="M200.82,143.34c-.2,2-25.37,3.81-25.37,2.46,0,0-.65-4.15-1.33-9-.84-5.87-1.75-12.71-1.62-14.14.23-2.59,2.33-15,2.73-15.77.15-.29,1-.26,2-.13-.17,3.17.37,9.93,9.36,9.7,6.87-.17,8.16-4.68,8.1-8.23a3.46,3.46,0,0,1,1.76.43c.45.6,3.52,12.32,4,14.11a58.77,58.77,0,0,1,.34,6.57C200.87,135.27,200.86,142.94,200.82,143.34Z"/><path class="cls-31" d="M200.82,143.34c-.2,2-25.37,3.81-25.37,2.46,0,0-.65-4.15-1.33-9,11.93,3.3,21.73-3.17,26.63-7.46C200.87,135.27,200.86,142.94,200.82,143.34Z"/><path class="cls-16" d="M176.3,143.25a1.54,1.54,0,0,0,.62-.19,1,1,0,0,0,.43-.65,1.09,1.09,0,0,0-.33-1,1.58,1.58,0,0,0-.8-.31l-2.59-.51a1,1,0,0,0-1.23.37,1.38,1.38,0,0,0,.23,1.52,3.36,3.36,0,0,0,1.65.61A5.29,5.29,0,0,0,176.3,143.25Z"/><path class="cls-16" d="M176.91,145.41a1.28,1.28,0,0,0,.62-.19,1,1,0,0,0,.43-.64,1.09,1.09,0,0,0-.33-1,1.6,1.6,0,0,0-.8-.32l-2.59-.51a1,1,0,0,0-1.24.38,1.42,1.42,0,0,0,.23,1.52,3.38,3.38,0,0,0,1.66.6A5.29,5.29,0,0,0,176.91,145.41Z"/><path class="cls-16" d="M177,147.41a1.32,1.32,0,0,0,.63-.19,1,1,0,0,0,.43-.64,1.09,1.09,0,0,0-.33-1,1.6,1.6,0,0,0-.8-.32l-2.59-.51a1,1,0,0,0-1.24.38,1.42,1.42,0,0,0,.23,1.52,3.48,3.48,0,0,0,1.66.6A5.24,5.24,0,0,0,177,147.41Z"/><path class="cls-16" d="M177.18,149.72a1.28,1.28,0,0,0,.62-.19.94.94,0,0,0,.43-.64,1.07,1.07,0,0,0-.33-1,1.69,1.69,0,0,0-.8-.32l-2.59-.51c-.43-.08-1-.12-1.23.38a1.39,1.39,0,0,0,.22,1.52,3.38,3.38,0,0,0,1.66.6A5.29,5.29,0,0,0,177.18,149.72Z"/><path class="cls-12" d="M144.94,118.82l-5.24-9.37s-4.38.7-6.15,3.85c-3,5.21-10,24.06-10,24.06l2.75,20Z"/><path class="cls-7" d="M156.62,107.15c-1.82,4.32-4.65,10.6-5.72,10.6s-4.28-6.1-6-9.57a1.69,1.69,0,0,0,.19-.19,12.19,12.19,0,0,0,.91-4.17c.19-1.73.27-3.32.27-3.32h9.39a36.65,36.65,0,0,0,.05,5.14,3.48,3.48,0,0,0,.36,1.32A.85.85,0,0,0,156.62,107.15Z"/><path class="cls-8" d="M155.75,105.64a13.76,13.76,0,0,1-9.71-1.82c.19-1.73.27-3.32.27-3.32h9.39A36.65,36.65,0,0,0,155.75,105.64Z"/><path class="cls-8" d="M144.37,92.93c-.54,1.57-2.6,2.3-4.62,1.62s-3.21-2.51-2.68-4.09,2.6-2.3,4.61-1.62S144.9,91.35,144.37,92.93Z"/><path class="cls-8" d="M158.92,94.71c.25,1.64,2.16,2.71,4.26,2.38s3.61-1.91,3.35-3.56-2.16-2.71-4.26-2.38S158.67,93.07,158.92,94.71Z"/><path class="cls-7" d="M162.59,90.85c-.7,8.14-5.48,13.26-11.73,13.26-6.4,0-10.48-7-9.77-15.12s6.09-14.33,12-13.82S163.3,82.71,162.59,90.85Z"/><path class="cls-8" d="M141,91.81A40.53,40.53,0,0,1,143.31,86a2.29,2.29,0,0,0,2.15,1,7.46,7.46,0,0,0,4.21-1.56,1.28,1.28,0,0,0,.62,1.26,2.53,2.53,0,0,0,1.36.18A13.24,13.24,0,0,0,157.54,85a11.11,11.11,0,0,0,1.37,1.6,2.61,2.61,0,0,0,1.12.67c.42.09.64.18.88-.23a39,39,0,0,1,1.39,5.49,59.61,59.61,0,0,1-.42-9.73,123.18,123.18,0,0,1-18.56-1.72,30,30,0,0,1-1.88,6.15,8.7,8.7,0,0,0-.21,3.39"/><path class="cls-32" d="M164.66,86.6a30,30,0,0,1-2.43,6.76,32.9,32.9,0,0,0-1.2-8.15c-.14.83-1,.93-1.67.63a4.49,4.49,0,0,1-1.71-2c-1.38.75-4.48,1.9-6.31,1.71-1.08-.11-1.1-1-.48-1.65-2.3,1.19-4.09,2-5.85,1.89-1.17-.08-1.63-.62-1.7-1.22-1.31,2-1.91,5.13-2.29,7.49-.34-2.91-.7-6-.07-8.85A9.94,9.94,0,0,1,139.8,80a4.33,4.33,0,0,1,.34-2.27,7.14,7.14,0,0,1,.47-.91c.7-1.15,2.7-1.26,3.77-.8a3.65,3.65,0,0,1,1.37-2.58,6.42,6.42,0,0,1,4.52-1.16,6.22,6.22,0,0,1,4,2.25,3.12,3.12,0,0,1,3.08-.92A5.77,5.77,0,0,1,160,75.47a11.27,11.27,0,0,1,2,3.16A7.13,7.13,0,0,1,165.34,81a4,4,0,0,1,.57,1A3.85,3.85,0,0,1,164.66,86.6Z"/><path class="cls-33" d="M165.34,81a6.88,6.88,0,0,0-4-1.5,10.66,10.66,0,0,0-3.75-3.94,3.63,3.63,0,0,0-1.71-.45,2.07,2.07,0,0,0-1.51.78A8.39,8.39,0,0,0,151,73.81,5.44,5.44,0,0,0,147,74a3.39,3.39,0,0,0-2,3,5.3,5.3,0,0,0-3.45-.07,5.23,5.23,0,0,0-1.47.75,7.14,7.14,0,0,1,.47-.91c.7-1.15,2.7-1.26,3.77-.8a3.65,3.65,0,0,1,1.37-2.58,6.42,6.42,0,0,1,4.52-1.16,6.22,6.22,0,0,1,4,2.25,3.12,3.12,0,0,1,3.08-.92A5.77,5.77,0,0,1,160,75.47a11.27,11.27,0,0,1,2,3.16A7.13,7.13,0,0,1,165.34,81Z"/><path class="cls-34" d="M168.63,158.13c-11.38,1.68-26.35,1.31-32.9,0V134.78c0-2.13.27-23.24,1.68-25.08.55-.7,6.44-1.51,7.64-2.42,1.69,3.5,4,8.26,5.72,8.29s4-4.49,5.89-8.84a56,56,0,0,0,7-.22s2.05,15.32,2.63,20.18c.64,5.35,1.39,16.52,1.86,24C168.45,155,168.63,158.13,168.63,158.13Z"/><path class="cls-35" d="M168.63,158.13c-11.38,1.68-26.35,1.31-32.9,0V143.21c3.34,2.5,12.43,7.4,32.45,7.48C168.45,155,168.63,158.13,168.63,158.13Z"/><path class="cls-12" d="M150.12,115.39l-4.64-8.88a11.71,11.71,0,0,0-4.56,1.92l-.3,9.61A14.77,14.77,0,0,1,150.12,115.39Z"/><path class="cls-12" d="M151.65,115.22l4.26-9.29a7,7,0,0,1,4.52.8l.29,9.53A17.87,17.87,0,0,0,151.65,115.22Z"/><path class="cls-36" d="M171.43,170.29l-3.58,6.47s-5.51,0-16.86.65a85.56,85.56,0,0,0-14.54,2l-6.95-18.72c1.38-.83,4.5-1.63,6.36-2.53h32.63a12.33,12.33,0,0,1,1.15,2.88C170.55,163.89,171.52,168.08,171.43,170.29Z"/><path class="cls-37" d="M169.64,161c-12.68,1.44-28.19-1.62-33.78-2.88h32.63A12.33,12.33,0,0,1,169.64,161Z"/><path class="cls-15" d="M137.4,141.88a1.87,1.87,0,0,0,.65-.27.84.84,0,0,0,.36-.64.91.91,0,0,0-.53-.8A2.1,2.1,0,0,0,137,140H134c-.49,0-1.07.05-1.29.53a1.09,1.09,0,0,0,.51,1.3,4.64,4.64,0,0,0,1.92.26A7.55,7.55,0,0,0,137.4,141.88Z"/><path class="cls-15" d="M138.44,143.68a1.87,1.87,0,0,0,.65-.27.86.86,0,0,0,.35-.64.88.88,0,0,0-.52-.8,2.12,2.12,0,0,0-.93-.15h-2.92c-.48,0-1.07.05-1.28.53a1.09,1.09,0,0,0,.51,1.3,4.57,4.57,0,0,0,1.91.26A7.62,7.62,0,0,0,138.44,143.68Z"/><path class="cls-15" d="M138.9,145.42a1.87,1.87,0,0,0,.65-.27.89.89,0,0,0,.36-.64.91.91,0,0,0-.53-.8,2.1,2.1,0,0,0-.93-.15l-2.92,0c-.48,0-1.06.06-1.28.54a1.1,1.1,0,0,0,.51,1.3,4.59,4.59,0,0,0,1.92.26A7.55,7.55,0,0,0,138.9,145.42Z"/><path class="cls-15" d="M139.48,147.42a1.67,1.67,0,0,0,.65-.27.85.85,0,0,0,.35-.64.9.9,0,0,0-.52-.8,2.27,2.27,0,0,0-.93-.15h-2.92c-.48,0-1.07.06-1.28.54a1.1,1.1,0,0,0,.51,1.3,4.56,4.56,0,0,0,1.91.25A7.29,7.29,0,0,0,139.48,147.42Z"/><path class="cls-38" d="M100.34,160s-8.26,1.28-10.76,5.92-3.43,13,5.92,13.39,24.91-.76,31.86-4.6C136.3,169.76,134,159,134,159Z"/><path class="cls-7" d="M123.34,113.61l-13.07,3.27-5.41-8.36,1.54-2.37a2.78,2.78,0,0,0,1.82-2.18c0-.27.07-.56.09-.86a14,14,0,0,0-.26-3.56l9.81-1.65a13,13,0,0,0,1.54,6.52h0a3.32,3.32,0,0,0,1.92,1.51l2,2.67Z"/><path class="cls-8" d="M119.4,104.42a18.24,18.24,0,0,1-11.09-1.31,14,14,0,0,0-.26-3.56l9.81-1.65A13,13,0,0,0,119.4,104.42Z"/><path class="cls-8" d="M105.15,93c-.19,1.65-2.06,2.79-4.18,2.55s-3.67-1.78-3.48-3.43,2.06-2.8,4.18-2.55S105.34,91.35,105.15,93Z"/><path class="cls-8" d="M119.34,91.22c.59,1.55,2.68,2.2,4.67,1.44s3.12-2.63,2.53-4.18-2.69-2.2-4.68-1.44S118.75,89.67,119.34,91.22Z"/><path class="cls-7" d="M122.69,87.89c1,8.11-3,14.69-8.94,15.43s-11.46-4.63-12.48-12.74,3-15.29,8.87-16S121.68,79.78,122.69,87.89Z"/><path class="cls-8" d="M101.37,90.76a17.23,17.23,0,0,1,1.85-3.5A16.89,16.89,0,0,0,109,84.49c-.22.45-.08.69-.4,1.07a13,13,0,0,0,4.88-2.67,6.66,6.66,0,0,0,2.56-3.59,17.12,17.12,0,0,1,1.06,5,5.12,5.12,0,0,0,1.39-3.72A10.45,10.45,0,0,0,121.06,83a22.5,22.5,0,0,1,1.53,4.1,44.31,44.31,0,0,0-.51-6.2,15.92,15.92,0,0,0-2.22-5.73,56.26,56.26,0,0,0-18.53,5.36,14,14,0,0,0-1,5.77A20.76,20.76,0,0,0,101.37,90.76Z"/><path class="cls-39" d="M123.31,79.87c0,.23,0,.47.07.7a22.25,22.25,0,0,1-.7,7.76,42.75,42.75,0,0,0-1.35-5.74,21,21,0,0,1-3.89-4.15,9.07,9.07,0,0,1-.62,7,12.63,12.63,0,0,0-.95-8.44,11.42,11.42,0,0,1-8.58,9.14,13.48,13.48,0,0,0,6.48-6.59,20.68,20.68,0,0,1-11.13,6.88,19.42,19.42,0,0,0-1.2,5.61,18.43,18.43,0,0,1-2.67-11.86,9.5,9.5,0,0,1,1.84-4.35,10.9,10.9,0,0,1,3.8-3.14c2.85-1.45,7.34-1.92,10.21-.33a6.32,6.32,0,0,1,6.32,1.54A11.11,11.11,0,0,1,123.31,79.87Z"/><path class="cls-40" d="M123.31,79.87a17.67,17.67,0,0,0-1.74-3.05,8.39,8.39,0,0,0-2.75-2.62,4.61,4.61,0,0,0-3.94-.07,18.17,18.17,0,0,0-14.27,1.69,10.9,10.9,0,0,1,3.8-3.14c2.85-1.45,7.34-1.92,10.21-.33a6.32,6.32,0,0,1,6.32,1.54A11.11,11.11,0,0,1,123.31,79.87Z"/><path class="cls-41" d="M117.16,95a14.52,14.52,0,0,1-8.33.45,4.41,4.41,0,0,0,4.46,3.2A4.17,4.17,0,0,0,117.16,95Z"/><polygon class="cls-11" points="105.57 116.26 103.38 106.78 82.26 112.28 83.78 119.15 103.71 127.08 105.57 116.26"/><path class="cls-11" d="M134,159c-10.27,2.88-22.39,2.83-33.65,1.13,0,0,0-11,0-19.75,0-4.8,0-8.94,0-10.26,0-3.7,2-22.39,3-23.38a.84.84,0,0,1,.33-.16,6.92,6.92,0,0,1,1.15-.22l.89-.11a2.79,2.79,0,0,0,.65-.14c.67,2.47,2.62,6.78,8.14,6.78,4.35,0,6.39-4.25,5.5-7.72a20.44,20.44,0,0,0,2.09-.22,44.76,44.76,0,0,1,5-.53c.87,1,3.57,11.86,4,13.92.26,1.34,1.4,18.23,2.16,29.81C133.7,154.37,134,159,134,159Z"/><path class="cls-42" d="M116.35,114.77c-7.91,2-11.46-5-12.64-8.15a6.92,6.92,0,0,1,1.15-.22l.89-.11a2.79,2.79,0,0,0,.65-.14c.67,2.47,2.62,6.78,8.14,6.78,4.35,0,6.39-4.25,5.5-7.72a20.44,20.44,0,0,0,2.09-.22C122.77,108.59,122.33,113.29,116.35,114.77Z"/><path class="cls-43" d="M134,159c-10.27,2.88-22.39,2.83-33.65,1.13,0,0,0-11,0-19.75,3.79,3.42,13.12,9,33,7.77C133.7,154.37,134,159,134,159Z"/><path class="cls-16" d="M100.62,144.36a1.54,1.54,0,0,0,.62-.19,1,1,0,0,0,.43-.65,1.09,1.09,0,0,0-.33-1,1.58,1.58,0,0,0-.8-.31L98,141.71c-.43-.08-1-.11-1.23.38a1.38,1.38,0,0,0,.23,1.52,3.32,3.32,0,0,0,1.65.61A5.5,5.5,0,0,0,100.62,144.36Z"/><path class="cls-16" d="M101.23,146.52a1.32,1.32,0,0,0,.62-.19,1,1,0,0,0,.43-.64,1.09,1.09,0,0,0-.33-1,1.51,1.51,0,0,0-.8-.32l-2.59-.51a1,1,0,0,0-1.24.38,1.42,1.42,0,0,0,.23,1.52,3.48,3.48,0,0,0,1.66.6A5.29,5.29,0,0,0,101.23,146.52Z"/><path class="cls-16" d="M101.33,148.52a1.32,1.32,0,0,0,.63-.19,1,1,0,0,0,.43-.64,1.09,1.09,0,0,0-.33-1,1.51,1.51,0,0,0-.8-.32l-2.59-.51a1,1,0,0,0-1.24.38,1.4,1.4,0,0,0,.23,1.52,3.48,3.48,0,0,0,1.66.6A5.24,5.24,0,0,0,101.33,148.52Z"/><path class="cls-16" d="M101.5,150.83a1.28,1.28,0,0,0,.62-.19,1,1,0,0,0,.43-.64,1.09,1.09,0,0,0-.33-1,1.69,1.69,0,0,0-.8-.32l-2.59-.51c-.43-.08-1-.12-1.24.38a1.41,1.41,0,0,0,.23,1.52,3.38,3.38,0,0,0,1.66.6A5.29,5.29,0,0,0,101.5,150.83Z"/><path class="cls-38" d="M134.18,163.61s-4.5-16.26-9.39-17.54c-4.53-1.18-11.63,1-11.63,7.11s3.48,18.18,6.44,20.68S132.5,175.09,134.18,163.61Z"/><path class="cls-39" d="M108.06,229.63c-.16,2.45-18.38,4-19.61.43a2.68,2.68,0,0,1-.06-1.36c.7-3.9,7.51-10.23,7.51-10.23H107s.76,5.61,1,9.09A17.36,17.36,0,0,1,108.06,229.63Z"/><path class="cls-44" d="M108.06,229.63c-.16,2.45-18.38,4-19.61.43a2.68,2.68,0,0,1-.06-1.36c3.35.74,12.19,2.19,19.62-1.14A17.36,17.36,0,0,1,108.06,229.63Z"/><path class="cls-45" d="M92.65,222.67a15,15,0,0,1,6.76.38"/><path class="cls-45" d="M93.76,221.09a18,18,0,0,1,6.39.28"/><path class="cls-45" d="M94.6,219.62a12.86,12.86,0,0,1,6.22.39"/><path class="cls-46" d="M109.22,219.17l-14.81-.7s-5.68-23.76-6.9-36.89a29.17,29.17,0,0,1,.12-7.18,13.08,13.08,0,0,1,2.71-6.54,6.05,6.05,0,0,1,2.17-1.73c4.73-2.15,7.72-1.23,9.66,1a6.78,6.78,0,0,1,.53.67c2.06,2.86,2.76,7.22,3.24,10.12C106.86,183.48,109.22,219.17,109.22,219.17Z"/><path class="cls-38" d="M102.7,167.76c-.39.15-.65.64-.77.68-4.93,1.63-11.28,3-14.3,6a13.08,13.08,0,0,1,2.71-6.54,18.67,18.67,0,0,1,4-.69,44.39,44.39,0,0,1,4.61-.29,17.23,17.23,0,0,1,3.19.21A6.78,6.78,0,0,1,102.7,167.76Z"/><path class="cls-39" d="M78.05,173.11a29.21,29.21,0,0,1-4.4,4.08,5.66,5.66,0,0,1-2.87,1.22c-3.07,0-13.94-14.48-12.67-19.62.24-1,1.23-1.24,2.58-1.12,4.11.36,11.6,4.43,11.6,4.43Z"/><path class="cls-44" d="M73.65,177.19a5.66,5.66,0,0,1-2.87,1.22c-3.07,0-13.94-14.48-12.67-19.62.24-1,1.23-1.24,2.58-1.12A27.71,27.71,0,0,0,73.65,177.19Z"/><path class="cls-45" d="M66.82,159.79a5.43,5.43,0,0,1-.41,4.32"/><path class="cls-45" d="M68.55,160.52a11.12,11.12,0,0,1,.21,5"/><path class="cls-45" d="M70.18,161.33a11.34,11.34,0,0,1,.79,4.19"/><path class="cls-46" d="M128.51,154.26s.07,6.68-13.21,10.77-37.6,9.06-37.6,9.06L71.64,161.4s34.52-13.54,40.33-14.91S129.23,142.33,128.51,154.26Z"/><path class="cls-31" d="M194.66,228c1,1.68,14.48,1.72,14.65,0s-1.63-5.13-3.32-8c-1-1.72-2-3.21-2.5-3.93l-.31-.45h-8.52s-.12.78-.24,2c0,.44-.1.94-.14,1.46C194,222.27,193.8,226.61,194.66,228Z"/><path class="cls-15" d="M194.28,219.14a7.55,7.55,0,0,0,2.4,3.47,6.27,6.27,0,0,0,7.89-.38,5.74,5.74,0,0,0,1.42-2.14c-1-1.72-2-3.21-2.5-3.93l-.31-.45h-8.52s-.12.78-.24,2C194.37,218.12,194.32,218.62,194.28,219.14Z"/><path class="cls-47" d="M194.42,217.68c2.81-.46,7.28-1.2,9.07-1.52l-.31-.45h-8.52S194.54,216.49,194.42,217.68Z"/><path class="cls-48" d="M202.15,154.46s5.49,2,5.46,15.93-3.81,45.47-3.81,45.47l-9.77.8s-2.81-43.06-2.46-49S192.55,150,202.15,154.46Z"/><path class="cls-31" d="M188.88,228.19c-1,1.68-14.49,1.71-14.66,0s1.63-5.14,3.32-8c1-1.72,2-3.21,2.5-3.93l.31-.46h8.53s.11.79.23,2c0,.44.1.94.14,1.46C189.54,222.43,189.73,226.76,188.88,228.19Z"/><path class="cls-15" d="M189.25,219.3a7.6,7.6,0,0,1-2.39,3.47,6.3,6.3,0,0,1-7.9-.38,5.9,5.9,0,0,1-1.42-2.14c1-1.72,2-3.21,2.5-3.93l.31-.46h8.53s.11.79.23,2C189.16,218.28,189.21,218.78,189.25,219.3Z"/><path class="cls-47" d="M189.11,217.84c-2.81-.46-7.28-1.2-9.07-1.52l.31-.46h8.53S189,216.65,189.11,217.84Z"/><path class="cls-48" d="M176.5,156.32s-5.33,2.44-4.3,16.28,7.67,43.24,7.67,43.24l9.63.85s-.72-42.07-1.5-48S185.75,151.16,176.5,156.32Z"/><path class="cls-9" d="M261.52,220.79c-.58,6.26-11.24,7.54-11.92,5.91a42.07,42.07,0,0,1-2-9c-.69-4.74-1-9.24-1-9.24l7.1-2.54s.76.92,1.8,2.33C257.85,211.53,261.82,217.48,261.52,220.79Z"/><path class="cls-16" d="M256.23,215.28a8.78,8.78,0,0,1-.9,4.18,3.77,3.77,0,0,1-3.52,2,5.15,5.15,0,0,1-3.22-2.33c-.36-.48-.7-1-1-1.48-.29-2-.52-4-.68-5.55-.23-2.19-.34-3.69-.34-3.69l7.1-2.54s.58.71,1.44,1.84c.11.16.23.32.36.49A26.93,26.93,0,0,1,256.23,215.28Z"/><path class="cls-8" d="M255.08,207.75l-8.2,4.39c-.23-2.19-.34-3.69-.34-3.69l7.1-2.54S254.22,206.62,255.08,207.75Z"/><path class="cls-49" d="M225.91,156.37s5.82-.77,12.3,11.5,15.92,37.65,15.92,37.65l-8,6.34S225.23,178.4,222.76,173,215.34,156.91,225.91,156.37Z"/><path class="cls-9" d="M237.17,227.45c-.13,1.77-10.66,2.84-13,.77-1.55-1.35-1-7.24-.38-11.18.32-2.11.64-3.66.64-3.66l8.79-1.15s.87,2.68,1.8,5.81C236.08,221.78,237.27,226.17,237.17,227.45Z"/><path class="cls-16" d="M234.88,221.44a4,4,0,0,1-2.59,1.84,7.13,7.13,0,0,1-4,.21,6.75,6.75,0,0,1-4.31-5,10.69,10.69,0,0,1-.27-1.48c.05-.33.1-.66.15-1,.27-1.6.49-2.7.49-2.7l8.79-1.15.21.65c.32,1,.94,3,1.59,5.16l.09.74A4.88,4.88,0,0,1,234.88,221.44Z"/><path class="cls-8" d="M233.39,212.88l-9.49,3.2c.27-1.6.49-2.7.49-2.7l8.79-1.15Z"/><path class="cls-49" d="M207.61,157.17s-4.62,3.6-.42,16.83,16.28,40.34,16.28,40.34l9.94-1.81s-9.62-40.4-11.75-46S215.41,150,207.61,157.17Z"/><path class="cls-50" d="M153.93,228.45c.08,2.46,18.25,4.5,19.58,1a2.55,2.55,0,0,0,.1-1.36c-.58-3.92-7.19-10.45-7.19-10.45l-11.13-.33s-.93,5.58-1.25,9.06A17.39,17.39,0,0,0,153.93,228.45Z"/><path class="cls-51" d="M153.93,228.45c.08,2.46,18.25,4.5,19.58,1a2.55,2.55,0,0,0,.1-1.36c-3.36.64-12.24,1.83-19.57-1.72A17.39,17.39,0,0,0,153.93,228.45Z"/><path class="cls-52" d="M169.93,222.57a15,15,0,0,0-6.77.18"/><path class="cls-52" d="M168.87,221a18.1,18.1,0,0,0-6.4.09"/><path class="cls-52" d="M168.08,219.47a12.8,12.8,0,0,0-6.24.2"/><path class="cls-53" d="M165.44,158.31s6.31,2,6.12,15.88-3.72,43.55-3.72,43.55l-13.62,1.1s-1.62-41.25-1.14-47.2S154.41,153.94,165.44,158.31Z"/><path class="cls-50" d="M140.53,229.63c-.16,2.45-18.38,4-19.61.43a2.57,2.57,0,0,1,0-1.36c.69-3.9,7.5-10.23,7.5-10.23H139.5s.76,5.61,1,9.09A17.36,17.36,0,0,1,140.53,229.63Z"/><path class="cls-51" d="M140.53,229.63c-.16,2.45-18.38,4-19.61.43a2.57,2.57,0,0,1,0-1.36c3.34.74,12.18,2.19,19.61-1.14A17.36,17.36,0,0,1,140.53,229.63Z"/><path class="cls-52" d="M124.71,223.27a15,15,0,0,1,6.76.38"/><path class="cls-52" d="M125.82,221.69a18,18,0,0,1,6.39.28"/><path class="cls-52" d="M126.66,220.23a12.79,12.79,0,0,1,6.23.38"/><path class="cls-53" d="M129.5,160.67s-6,2.1-5.68,16,3.83,41.81,3.83,41.81l12.68,1.13s1.67-39.88,1.15-45.82S140,156.11,129.5,160.67Z"/><path class="cls-8" d="M113.25,89.92a9.53,9.53,0,0,1,1.25,5.43,3,3,0,0,1-2.31.19l1-.24a3.31,3.31,0,0,0,.89-.33l-.12.19a18.8,18.8,0,0,0-.75-5.24Z"/><path class="cls-41" d="M109.72,96.94s3,3,5.94-.13"/><path class="cls-39" d="M113.54,88.61a3.43,3.43,0,0,1,5.71-1c.62.82.61.9-.29.35-1.84-1.08-3.63-.54-5.42.64Z"/><path class="cls-39" d="M105,88.61c.92-3.06,4.8-2.63,6.23-.2a8.35,8.35,0,0,1-.85-.37c-1.9-.93-3.68-1-5.38.57Z"/><path class="cls-54" d="M115,91.63a2.11,2.11,0,0,1,.73-2,1.4,1.4,0,0,1,2,.67,2.34,2.34,0,0,1,.13,1.4,4.1,4.1,0,0,0-.49-1.21c-1-1.33-2.08-.05-2.4,1.12Z"/><path class="cls-54" d="M107,91.46a2.18,2.18,0,0,1,.73-2,1.4,1.4,0,0,1,2,.67,2.35,2.35,0,0,1,.14,1.4,4.39,4.39,0,0,0-.5-1.21c-1-1.33-2.08,0-2.4,1.13Z"/><path class="cls-25" d="M184.93,91.08c.73,1.65.59,4-1,5.08l0-.37c.59.38,1.17.78,1.73,1.22a23.91,23.91,0,0,1-2.2-1c1.4-1.28,1.56-3.16,1.51-5Z"/><path class="cls-41" d="M188.36,98.88s-3.47,2.69-6.19-.3"/><path class="cls-26" d="M183.71,90c-2.33-1.59-3.51-1.13-5.59.29.79-2.94,4.63-3.3,5.59-.29Z"/><path class="cls-26" d="M192.23,90.46A5.5,5.5,0,0,0,189.54,89a6.72,6.72,0,0,0-3,.72,3,3,0,0,1,5.69.72Z"/><path class="cls-55" d="M188,94a2.35,2.35,0,0,1,.48-2.3,1.38,1.38,0,0,1,2.18.68,3.25,3.25,0,0,1,.15,1.57,5.73,5.73,0,0,0-.49-1.41,1,1,0,0,0-2,0A5.07,5.07,0,0,0,188,94Z"/><path class="cls-55" d="M179.59,94a2.35,2.35,0,0,1,.48-2.3,1.38,1.38,0,0,1,2.18.68,3.25,3.25,0,0,1,.15,1.57,5.73,5.73,0,0,0-.49-1.41,1,1,0,0,0-2,0,5.07,5.07,0,0,0-.36,1.44Z"/><path class="cls-8" d="M220.73,92.39A9.53,9.53,0,0,0,222,96.12l-.38.12a11.37,11.37,0,0,1-2.62.61,12.61,12.61,0,0,1,2.4-1.22l-.17.48a4.43,4.43,0,0,1-.49-3.72Z"/><path class="cls-8" d="M215.24,98c2,2.23,4.58,3.29,7.39,1.89-2.42,2.44-6.21,1.06-7.39-1.89Z"/><path class="cls-21" d="M221.83,89.66c2-3.48,6.67-1.82,7.71,1.57a9.81,9.81,0,0,1-.93-.7c-2.08-1.69-4.19-2.33-6.78-.87Z"/><path class="cls-21" d="M211.63,87.24c2-3.49,6.66-1.83,7.71,1.57a10,10,0,0,1-.94-.7c-2.08-1.7-4.19-2.34-6.77-.87Z"/><path class="cls-56" d="M215.71,91.07c-.21.9-.63,1.56-.94,1.49s-.38-.86-.17-1.75.64-1.56.94-1.49S215.92,90.18,215.71,91.07Z"/><path class="cls-56" d="M225.41,93.15c-.21.89-.63,1.56-.94,1.48s-.38-.85-.17-1.75.63-1.56.94-1.48S225.62,92.25,225.41,93.15Z"/><path class="cls-57" d="M150.27,90.28a33.76,33.76,0,0,1-1.34,6.45l-.16-.25a16.45,16.45,0,0,1,1.78.53,20.38,20.38,0,0,1-2.06-.15,33.34,33.34,0,0,1,1.78-6.58Z"/><path class="cls-57" d="M153.87,98.6c-2,1.34-5.12,1.53-6.92-.28a10.39,10.39,0,0,0,6.92.28Z"/><path class="cls-58" d="M149.85,89.72c-2.34-1.24-4.22-2.27-6.46-.21.91-3.5,5.24-2.57,6.46.21Z"/><path class="cls-58" d="M158.46,89.72c-2.17-1.93-4.17-1.18-6.46-.21,1.4-2.62,5.61-3,6.46.21Z"/><path class="cls-54" d="M154.47,91.69c0,.75.21,1.36.47,1.36s.47-.61.47-1.36-.21-1.37-.47-1.37S154.47,90.93,154.47,91.69Z"/><path class="cls-54" d="M146.33,91.5c0,.76.21,1.37.47,1.37s.47-.61.47-1.37-.21-1.36-.47-1.36S146.33,90.75,146.33,91.5Z"/></g></g></svg>