<svg xmlns="http://www.w3.org/2000/svg" xmlns:xlink="http://www.w3.org/1999/xlink" viewBox="0 0 585.58 1339.46"><defs><style>.cls-1{fill:none;}.cls-2{clip-path:url(#clip-path);}.cls-3{fill:#fff;}.cls-4{fill:#c5c5c5;}.cls-5{fill:#fff1dc;}.cls-6{fill:#d9e7e7;}.cls-7{clip-path:url(#clip-path-2);}.cls-8{clip-path:url(#clip-path-3);}.cls-9{clip-path:url(#clip-path-4);}</style><clipPath id="clip-path" transform="translate(2.62 21.22)"><polygon class="cls-1" points="582.74 341.45 0 341.45 0 341.45 0 0 582.74 0 582.74 0 582.74 341.45"/></clipPath><clipPath id="clip-path-2" transform="translate(2.62 21.22)"><rect class="cls-1" y="341.45" width="582.74" height="341.45"/></clipPath><clipPath id="clip-path-3" transform="translate(2.62 21.22)"><rect class="cls-1" y="682.89" width="582.74" height="341.45"/></clipPath><clipPath id="clip-path-4" transform="translate(2.62 21.22)"><rect class="cls-1" y="955.57" width="582.74" height="341.45" rx="18.64"/></clipPath></defs><g id="Layer_2" data-name="Layer 2"><g id="OBJECTS"><g class="cls-2"><polygon class="cls-3" points="585.35 362.67 2.62 362.67 2.62 362.67 2.62 21.22 585.35 21.22 585.35 21.22 585.35 362.67"/><rect class="cls-1" x="2.24" y="21.72" width="582.74" height="341.45" rx="18.64"/><path class="cls-4" d="M428.88,88.08s.22,1.63-1.8,4.49c-1.23,1.76-4.47,2.35-4.47,2.35s3.32.27,4.77,2.42a8.93,8.93,0,0,1,1.5,4.41,7.71,7.71,0,0,1,6.29-7.23S429.59,94.92,428.88,88.08Z" transform="translate(2.62 21.22)"/><circle class="cls-4" cx="389.02" cy="171.09" r="7.53" transform="translate(-4.42 346.41) rotate(-45)"/><rect class="cls-1" x="2.24" y="21.22" width="582.74" height="341.45" rx="18.64"/><rect class="cls-1" x="2.24" y="21.22" width="582.74" height="341.45" rx="18.64"/><rect class="cls-1" x="2.24" y="21.22" width="582.74" height="341.45" rx="18.64"/><rect class="cls-1" x="2.24" y="21.22" width="582.74" height="341.45" rx="18.64"/><path class="cls-5" d="M573.65-21.22H554.11c12.84,27.67-1.74,62-99.95,81.48-156.29,30.92-57.83,173.6-171.49,202.48-96.62,24.55-88.11-22.61-165.44-55.21-37.45-15.8-96.88-12.12-119.85,13V341.15a9.32,9.32,0,0,0,9.32,9.31H573.65a9.31,9.31,0,0,0,9.31-9.31v-353A9.31,9.31,0,0,0,573.65-21.22Z" transform="translate(2.62 21.22)"/><path class="cls-6" d="M157.8.17c1.69,18.42-6.48,36.71-18.5,50.09S111.72,72.78,96,80.7C88.61,84.42,81,88,75,93.92c-7.83,7.7-12.18,18.63-19.44,26.93C41.67,136.71,20.46,146.07-.38,143.51V.17Z" transform="translate(2.62 21.22)"/></g><g class="cls-7"><rect class="cls-3" x="2.62" y="362.67" width="582.74" height="341.45"/><rect class="cls-1" x="2.24" y="362.17" width="582.74" height="341.45" rx="18.64"/><path class="cls-4" d="M428.88,594.81s.22-1.62-1.8-4.49c-1.23-1.75-4.47-2.34-4.47-2.34s3.32-.28,4.77-2.42a9,9,0,0,0,1.5-4.42,7.71,7.71,0,0,0,6.29,7.23S429.59,588,428.88,594.81Z" transform="translate(2.62 21.22)"/><circle class="cls-4" cx="389.02" cy="511.8" r="7.53" transform="translate(-245.34 446.2) rotate(-45)"/><rect class="cls-1" x="2.24" y="362.67" width="582.74" height="341.45" rx="18.64"/><rect class="cls-1" x="2.24" y="362.67" width="582.74" height="341.45" rx="18.64"/><rect class="cls-1" x="2.24" y="362.67" width="582.74" height="341.45" rx="18.64"/><rect class="cls-1" x="2.24" y="362.67" width="582.74" height="341.45" rx="18.64"/><path class="cls-5" d="M583,704.11H554.11c12.84-27.66-1.74-62-99.95-81.47C297.87,591.71,396.33,449,282.67,420.16c-96.62-24.55-88.11,22.6-165.44,55.21-37.45,15.79-96.88,12.11-119.85-13V332.43H583Z" transform="translate(2.62 21.22)"/><path class="cls-6" d="M157.8,682.72c1.69-18.42-6.48-36.71-18.5-50.09S111.72,610.11,96,602.19c-7.38-3.71-15-7.31-21-13.21-7.83-7.7-12.18-18.63-19.44-26.94C41.67,546.18,20.46,536.82-.38,539.38V682.72Z" transform="translate(2.62 21.22)"/></g><g class="cls-8"><rect class="cls-3" x="2.62" y="704.11" width="582.74" height="341.45" rx="18.64"/><rect class="cls-1" x="2.24" y="704.61" width="582.74" height="341.45" rx="18.64"/><path class="cls-4" d="M428.88,771s.22,1.62-1.8,4.48c-1.23,1.76-4.47,2.35-4.47,2.35s3.32.28,4.77,2.42a8.93,8.93,0,0,1,1.5,4.41,7.7,7.7,0,0,1,6.29-7.22S429.59,777.81,428.88,771Z" transform="translate(2.62 21.22)"/><circle class="cls-4" cx="389.02" cy="853.99" r="7.53" transform="translate(-487.3 546.43) rotate(-45)"/><rect class="cls-1" x="2.24" y="704.11" width="582.74" height="341.45" rx="18.64"/><rect class="cls-1" x="2.24" y="704.11" width="582.74" height="341.45" rx="18.64"/><rect class="cls-1" x="2.24" y="704.11" width="582.74" height="341.45" rx="18.64"/><rect class="cls-1" x="2.24" y="704.11" width="582.74" height="341.45" rx="18.64"/><path class="cls-5" d="M573.65,661.67H554.11c12.84,27.67-1.74,62.05-99.95,81.48-156.29,30.93-57.83,173.6-171.49,202.48-96.62,24.55-88.11-22.61-165.44-55.21-37.45-15.79-96.88-12.11-119.85,13V1024a9.32,9.32,0,0,0,9.32,9.32H573.65A9.31,9.31,0,0,0,583,1024V671A9.31,9.31,0,0,0,573.65,661.67Z" transform="translate(2.62 21.22)"/><path class="cls-6" d="M157.8,683.07c1.69,18.42-6.48,36.7-18.5,50.09S111.72,755.67,96,763.59c-7.38,3.72-15,7.32-21,13.22-7.83,7.7-12.18,18.63-19.44,26.93C41.67,819.6,20.46,829-.38,826.41V683.07Z" transform="translate(2.62 21.22)"/></g><g class="cls-9"><rect class="cls-3" x="2.62" y="976.79" width="582.74" height="341.45" rx="18.64"/><rect class="cls-1" x="2.24" y="976.29" width="582.74" height="341.45" rx="18.64"/><path class="cls-4" d="M428.88,1208.94s.22-1.63-1.8-4.49c-1.23-1.76-4.47-2.35-4.47-2.35s3.32-.27,4.77-2.42a8.93,8.93,0,0,0,1.5-4.41,7.71,7.71,0,0,0,6.29,7.23S429.59,1202.1,428.88,1208.94Z" transform="translate(2.62 21.22)"/><circle class="cls-4" cx="389.02" cy="1125.93" r="7.53" transform="translate(-679.59 626.08) rotate(-45)"/><rect class="cls-1" x="2.24" y="976.79" width="582.74" height="341.45" rx="18.64"/><rect class="cls-1" x="2.24" y="976.79" width="582.74" height="341.45" rx="18.64"/><rect class="cls-1" x="2.24" y="976.79" width="582.74" height="341.45" rx="18.64"/><rect class="cls-1" x="2.24" y="976.79" width="582.74" height="341.45" rx="18.64"/><path class="cls-5" d="M573.65,1318.24H554.11c12.84-27.67-1.74-62-99.95-81.48-156.29-30.92-57.83-173.6-171.49-202.47-96.62-24.56-88.11,22.6-165.44,55.21-37.45,15.79-96.88,12.11-119.85-13V955.87a9.32,9.32,0,0,1,9.32-9.31H573.65a9.31,9.31,0,0,1,9.31,9.31v353.05A9.31,9.31,0,0,1,573.65,1318.24Z" transform="translate(2.62 21.22)"/><path class="cls-6" d="M157.8,1296.85c1.69-18.42-6.48-36.71-18.5-50.09s-27.58-22.52-43.31-30.44c-7.38-3.72-15-7.32-21-13.22-7.83-7.7-12.18-18.62-19.44-26.93C41.67,1160.31,20.46,1151-.38,1153.51v143.34Z" transform="translate(2.62 21.22)"/></g></g></g></svg>